<svg width="256" height="256" viewBox="0 0 256 256" fill="none" xmlns="http://www.w3.org/2000/svg">
    <style>
        #basecolor {
          fill: #555;
        }
        #fillcolor {
          fill: #FAFAFA;
        }
        #accentcolor {
          fill: #0078D4;
        }

        @media (prefers-color-scheme: dark) {
            #basecolor {
              fill: #E0DFDF;
            }
            #fillcolor {
              fill: none;
            }
            #accentcolor {
              fill: #4CC2FF;
            }
        }
  </style>
    <path
        d="M1.47014 166.551L119.045 232.7C124.605 235.829 131.395 235.829 136.955 232.7L254.53 166.551C257.944 174.554 255.41 184.619 246.934 189.559L137.196 253.516C131.513 256.828 124.487 256.828 118.804 253.516L9.06617 189.559C0.589987 184.619 -1.94457 174.554 1.47014 166.551Z"
        id="basecolor" />
    <path
        d="M1.47014 121.811L119.045 187.961C124.605 191.089 131.395 191.089 136.955 187.961L254.53 121.812C257.944 129.815 255.41 139.88 246.934 144.82L137.196 208.776C131.513 212.088 124.487 212.088 118.804 208.776L9.06617 144.82C0.589987 139.88 -1.94457 129.814 1.47014 121.811Z"
        id="basecolor" />
    <path
        d="M137.23 2.50388C131.53 -0.834623 124.47 -0.834629 118.77 2.50388L9.03263 66.7733C-3.02572 73.8354 -3.00719 91.2709 9.06618 98.3074L118.804 162.264C124.487 165.576 131.513 165.576 137.196 162.264L246.934 98.3074C259.007 91.2709 259.026 73.8354 246.967 66.7733L137.23 2.50388Z"
        id="basecolor" />
</svg>