<svg height="100%" viewBox="0 0 1024 960" width="100%" xmlns="http://www.w3.org/2000/svg" xmlns:xlink="http://www.w3.org/1999/xlink">
    <style>
            #basecolor {
            fill: #555;
            }
            #fillcolor {
            fill: #FAFAFA;
            }
            #accentcolor {
            fill: #0078D4;
            }

            @media (prefers-color-scheme: dark) {
                #basecolor {
                fill: #E0DFDF;
                }
                #fillcolor {
                fill: none;
                }
                #accentcolor {
                fill: #4CC2FF;
                }
            }
    </style>
    <path id="basecolor" d="M1024,480C1024,488.667 1020.83,496.167 1014.5,502.5C1008.17,508.833 1000.67,512 992,512L109.5,512L502.5,905.5C508.833,911.833 512,919.333 512,928C512,936.667 508.833,944.167 502.5,950.5C496.167,956.833 488.667,960 480,960C471.333,960 463.833,956.833 457.5,950.5L11,504C7.33333,500.333 4.58333,496.667 2.75,493C0.916667,489.333 0,485 0,480C0,475 0.916667,470.667 2.75,467C4.58333,463.333 7.33333,459.667 11,456L457.5,9.5C463.833,3.16669 471.333,0 480,0C488.667,0 496.167,3.16669 502.5,9.5C508.833,15.8334 512,23.3334 512,32C512,40.6667 508.833,48.1667 502.5,54.5L109.5,448L992,448C1000.67,448 1008.17,451.167 1014.5,457.5C1020.83,463.833 1024,471.333 1024,480Z">
    </path>
</svg>