<svg xmlns="http://www.w3.org/2000/svg" fill="none" viewBox="0 0 16 16">
  <style>
        #basecolor {
          fill: #555;
        }
        #fillcolor {
          fill: #FAFAFA;
        }
        #accentcolor {
          fill: #0078D4;
        }

        @media (prefers-color-scheme: dark) {
            #basecolor {
              fill: #E0DFDF;
            }
            #fillcolor {
              fill: none;
            }
            #accentcolor {
              fill: #4CC2FF;
            }
        }
  </style>
  <path id="basecolor" d="M3.228.08a.5.5 0 0 1 .691.148l6.821 10.494a.5.5 0 0 1-.838.545L3.08.772a.5.5 0 0 1 .147-.691Z"/>
  <path id="basecolor" d="m7.854 6.743-2.595 4a.5.5 0 0 0 .838.544L8.45 7.661l-.596-.918Zm1.34-.23L12.92.773a.5.5 0 1 0-.838-.545L8.598 5.595l.597.918Z"/>
  <path id="accentcolor" d="M4 11a2 2 0 1 0 0 4 2 2 0 0 0 0-4Zm-3 2a3 3 0 1 1 6 0 3 3 0 0 1-6 0Zm11-2a2 2 0 1 0 0 4 2 2 0 0 0 0-4Zm-3 2a3 3 0 1 1 6 0 3 3 0 0 1-6 0Z"/>
</svg>
