<svg height="100%" viewBox="0 64 1024 896" width="100%" xmlns="http://www.w3.org/2000/svg" xmlns:xlink="http://www.w3.org/1999/xlink">
    <style>
            #basecolor {
            fill: #555;
            }
            #fillcolor {
            fill: #FAFAFA;
            }
            #accentcolor {
            fill: #0078D4;
            }

            @media (prefers-color-scheme: dark) {
                #basecolor {
                fill: #E0DFDF;
                }
                #fillcolor {
                fill: none;
                }
                #accentcolor {
                fill: #4CC2FF;
                }
            }
    </style>
   <path id="basecolor" d="M867.5,192C888.5,192 908.5,196.25 927.5,204.75C946.5,213.25 963.083,224.583 977.25,238.75C991.417,252.917 1002.75,269.5 1011.25,288.5C1019.75,307.5 1024,327.5 1024,348.5L1024,803.5C1024,824.5 1019.75,844.5 1011.25,863.5C1002.75,882.5 991.417,899.083 977.25,913.25C963.083,927.417 946.5,938.75 927.5,947.25C908.5,955.75 888.5,960 867.5,960L156.5,960C135.5,960 115.5,955.75 96.5,947.25C77.5,938.75 60.9167,927.417 46.75,913.25C32.5833,899.083 21.25,882.5 12.75,863.5C4.25,844.5 0,824.5 0,803.5L0,220.5C0,199.5 4.25,179.5 12.75,160.5C21.25,141.5 32.5833,124.917 46.75,110.75C60.9167,96.5834 77.5,85.2501 96.5,76.75C115.5,68.2501 135.5,64.0001 156.5,64L352,64C377.667,64.0001 401.583,69.5834 423.75,80.75C445.917,91.9167 464.667,107.667 480,128L528,192ZM64,256L377,256C386,256 394.417,254.833 402.25,252.5C410.083,250.167 417.5,247.083 424.5,243.25C431.5,239.417 438.417,235.167 445.25,230.5C452.083,225.833 459,221 466,216C458,205.333 450.333,194.75 443,184.25C435.667,173.75 427.75,164.333 419.25,156C410.75,147.667 401.083,140.917 390.25,135.75C379.417,130.583 366.667,128 352,128L160,128C147,128 134.667,130.5 123,135.5C111.333,140.5 101.083,147.417 92.25,156.25C83.4167,165.083 76.5,175.333 71.5,187C66.5,198.667 64,211 64,224ZM960,352C960,339 957.5,326.667 952.5,315C947.5,303.333 940.583,293.083 931.75,284.25C922.917,275.417 912.667,268.5 901,263.5C889.333,258.5 877,256 864,256L521.5,256C509.5,264 498.083,271.833 487.25,279.5C476.417,287.167 465.25,294 453.75,300C442.25,306 430.333,310.833 418,314.5C405.667,318.167 392,320 377,320L64,320L64,800C64,813 66.5,825.333 71.5,837C76.5,848.667 83.4167,858.917 92.25,867.75C101.083,876.583 111.333,883.5 123,888.5C134.667,893.5 147,896 160,896L192,896L192,672C192,659 194.5,646.667 199.5,635C204.5,623.333 211.417,613.083 220.25,604.25C229.083,595.417 239.333,588.5 251,583.5C262.667,578.5 275,576 288,576L736,576C749,576 761.333,578.5 773,583.5C784.667,588.5 794.917,595.417 803.75,604.25C812.583,613.083 819.5,623.333 824.5,635C829.5,646.667 832,659 832,672L832,896L864,896C877,896 889.333,893.5 901,888.5C912.667,883.5 922.917,876.583 931.75,867.75C940.583,858.917 947.5,848.667 952.5,837C957.5,825.333 960,813 960,800ZM768,896L768,672C768,663.333 764.833,655.833 758.5,649.5C752.167,643.167 744.667,640 736,640L288,640C279.333,640 271.833,643.167 265.5,649.5C259.167,655.833 256,663.333 256,672L256,896ZM672,768C680.667,768 688.167,771.167 694.5,777.5C700.833,783.833 704,791.333 704,800C704,808.667 700.833,816.167 694.5,822.5C688.167,828.833 680.667,832 672,832L352,832C343.333,832 335.833,828.833 329.5,822.5C323.167,816.167 320,808.667 320,800C320,791.333 323.167,783.833 329.5,777.5C335.833,771.167 343.333,768 352,768Z">
   </path>
</svg>