<svg width="34" height="30" viewBox="0 0 34 30" fill="none" xmlns="http://www.w3.org/2000/svg">
    <style>
            #basecolor {
            fill: #555;
            }
            #fillcolor {
            fill: #FAFAFA;
            }
            #accentcolor {
            fill: #0078D4;
            }

            @media (prefers-color-scheme: dark) {
                #basecolor {
                fill: #E0DFDF;
                }
                #fillcolor {
                fill: none;
                }
                #accentcolor {
                fill: #4CC2FF;
                }
            }
    </style>
    <path id="basecolor" d="M0 1.71875C0 1.27604 0.154948 0.89974 0.464844 0.589844C0.77474 0.279948 1.15104 0.125 1.59375 0.125H11.3057C11.7816 0.125 12.2354 0.219076 12.667 0.407227C13.0986 0.58431 13.486 0.838867 13.8291 1.1709L16.3027 3.59473C16.2585 3.62793 16.2142 3.66113 16.1699 3.69434C16.1367 3.72754 16.098 3.76628 16.0537 3.81055L14.3105 5.57031C14.0117 5.86914 13.6631 6.10156 13.2646 6.26758C12.8773 6.42253 12.4733 6.5 12.0527 6.5H0V1.71875ZM1.59375 29.875C1.15104 29.875 0.77474 29.7201 0.464844 29.4102C0.154948 29.1003 0 28.724 0 28.2812V8.625H12.0527C12.7721 8.625 13.4473 8.48665 14.0781 8.20996C14.4766 8.04395 14.8418 7.83366 15.1738 7.5791C15.5059 7.31348 15.8102 7.04232 16.0869 6.76562C16.3747 6.47786 16.6514 6.19564 16.917 5.91895C17.1826 5.63118 17.4538 5.37663 17.7305 5.15527C18.0182 4.92285 18.3171 4.7347 18.627 4.59082C18.9368 4.44694 19.2799 4.375 19.6562 4.375H32.4062C32.849 4.375 33.2253 4.52995 33.5352 4.83984C33.8451 5.14974 34 5.52604 34 5.96875V28.2812C34 28.724 33.8451 29.1003 33.5352 29.4102C33.2253 29.7201 32.849 29.875 32.4062 29.875H29.75V22.0059C29.75 21.3307 29.6227 20.6999 29.3682 20.1133C29.1136 19.5156 28.765 18.9954 28.3223 18.5527C27.8796 18.11 27.3594 17.7614 26.7617 17.5068C26.1751 17.2523 25.5443 17.125 24.8691 17.125H9.13086C8.45573 17.125 7.81934 17.2523 7.22168 17.5068C6.63509 17.7614 6.12044 18.11 5.67773 18.5527C5.23503 18.9954 4.88639 19.5156 4.63184 20.1133C4.37728 20.6999 4.25 21.3307 4.25 22.0059V29.875H1.59375ZM6.375 22.0059C6.375 21.6296 6.44694 21.2754 6.59082 20.9434C6.74577 20.6003 6.94499 20.307 7.18848 20.0635C7.44303 19.8089 7.73633 19.6097 8.06836 19.4658C8.40039 19.3219 8.75456 19.25 9.13086 19.25H24.8691C25.2454 19.25 25.5996 19.3275 25.9316 19.4824C26.2637 19.6263 26.5514 19.8255 26.7949 20.0801C27.0495 20.3236 27.2487 20.6113 27.3926 20.9434C27.5475 21.2754 27.625 21.6296 27.625 22.0059V29.875H6.375V22.0059ZM22.3125 25.625C22.6003 25.625 22.8493 25.5199 23.0596 25.3096C23.2699 25.0993 23.375 24.8503 23.375 24.5625C23.375 24.2747 23.2699 24.0257 23.0596 23.8154C22.8493 23.6051 22.6003 23.5 22.3125 23.5H11.6875C11.3997 23.5 11.1507 23.6051 10.9404 23.8154C10.7301 24.0257 10.625 24.2747 10.625 24.5625C10.625 24.8503 10.7301 25.0993 10.9404 25.3096C11.1507 25.5199 11.3997 25.625 11.6875 25.625H22.3125Z"/>
</svg>
