<svg height="100%" viewBox="0 0 1024 960" width="100%" xmlns="http://www.w3.org/2000/svg" xmlns:xlink="http://www.w3.org/1999/xlink">
    <style>
            #basecolor {
            fill: #555;
            }
            #fillcolor {
            fill: #FAFAFA;
            }
            #accentcolor {
            fill: #0078D4;
            }

            @media (prefers-color-scheme: dark) {
                #basecolor {
                fill: #E0DFDF;
                }
                #fillcolor {
                fill: none;
                }
                #accentcolor {
                fill: #4CC2FF;
                }
            }
    </style>
    <path id="basecolor" d="M544,960C535.333,960 527.833,956.833 521.5,950.5C515.167,944.167 512,936.667 512,928C512,919.333 515.167,911.833 521.5,905.5L914.5,512L32,512C23.3333,512 15.8333,508.833 9.5,502.5C3.16667,496.167 0,488.667 0,480C0,471.333 3.16667,463.833 9.5,457.5C15.8333,451.167 23.3333,448 32,448L914.5,448L521.5,54.5C515.167,48.1667 512,40.6667 512,32C512,23.3334 515.167,15.8334 521.5,9.5C527.833,3.16669 535.333,0 544,0C552.667,0 560.167,3.16669 566.5,9.5L1013,456C1016.67,459.667 1019.42,463.333 1021.25,467C1023.08,470.667 1024,475 1024,480C1024,485 1023.08,489.333 1021.25,493C1019.42,496.667 1016.67,500.333 1013,504L566.5,950.5C560.167,956.833 552.667,960 544,960Z">
    </path>
</svg>