<svg xmlns="http://www.w3.org/2000/svg" fill="none" viewBox="0 0 16 16">
  <style>
        #basecolor {
          fill: #555;
        }
        #fillcolor {
          fill: #FAFAFA;
        }
        #accentcolor {
          fill: #0078D4;
        }
        #extracolor {
          fill: #fff;
        }

        @media (prefers-color-scheme: dark) {
            #basecolor {
              fill: #E0DFDF;
            }
            #fillcolor {
              fill: none;
            }
            #accentcolor {
              fill: #4CC2FF;
            }
            #extracolor {
              fill: #000;
            }
        }
  </style>
  <path id="fillcolor" d="M2.5 1.5h3a2 2 0 0 1 1.6.8L8 3.5h5.5a2 2 0 0 1 2 2v1.87a5.75 5.75 0 0 0-8.906 7.13H2.5a2 2 0 0 1-2-2v-9a2 2 0 0 1 2-2Z"/>
  <path id="basecolor" d="M0 3.5A2.5 2.5 0 0 1 2.5 1h3a2.5 2.5 0 0 1 2 1l.75 1h5.25A2.5 2.5 0 0 1 16 5.5v2.42a5.785 5.785 0 0 0-1-.982V5.5A1.5 1.5 0 0 0 13.5 4H8.151l-.87.58A2.5 2.5 0 0 1 5.894 5H1v7.5A1.5 1.5 0 0 0 2.5 14h3.82c.172.355.38.69.618 1H2.5A2.5 2.5 0 0 1 0 12.5v-9ZM2.5 2A1.5 1.5 0 0 0 1 3.5V4h4.894a1.5 1.5 0 0 0 .832-.252l.557-.37L6.7 2.6A1.5 1.5 0 0 0 5.5 2h-3Z"/>
  <path id="accentcolor" d="M16 11.5a4.5 4.5 0 1 1-9 0 4.5 4.5 0 0 1 9 0Z"/>
  <path id="extracolor" d="M11.5 9a.5.5 0 0 1 .5.5V11h1.5a.5.5 0 0 1 0 1H12v1.5a.5.5 0 0 1-1 0V12H9.5a.5.5 0 0 1 0-1H11V9.5a.5.5 0 0 1 .5-.5Z"/>
</svg>
