<svg xmlns="http://www.w3.org/2000/svg" fill="none" viewBox="0 0 16 16">
  <style>
        #basecolor {
          fill: #555;
        }
        #fillcolor {
          fill: #FAFAFA;
        }
        #accentcolor {
          fill: #0078D4;
        }

        @media (prefers-color-scheme: dark) {
            #basecolor {
              fill: #E0DFDF;
            }
            #fillcolor {
              fill: none;
            }
            #accentcolor {
              fill: #4CC2FF;
            }
        }
  </style>
  <path id="fillcolor" d="M2.5 1.5h2a1 1 0 0 1 1-1h3a1 1 0 0 1 1 1h2a1 1 0 0 1 1 1V4H8a2 2 0 0 0-2 2v9.5H2.5a1 1 0 0 1-1-1v-12a1 1 0 0 1 1-1Z"/>
  <path id="basecolor" d="M2.5 2a.5.5 0 0 0-.5.5v12a.5.5 0 0 0 .5.5h3a.5.5 0 0 1 0 1h-3A1.5 1.5 0 0 1 1 14.5v-12A1.5 1.5 0 0 1 2.5 1h2a.5.5 0 0 1 0 1h-2ZM9 1.5a.5.5 0 0 1 .5-.5h2A1.5 1.5 0 0 1 13 2.5v1a.5.5 0 0 1-1 0v-1a.5.5 0 0 0-.5-.5h-2a.5.5 0 0 1-.5-.5Z"/>
  <path id="basecolor" d="M4 1.5A1.5 1.5 0 0 1 5.5 0h3a1.5 1.5 0 1 1 0 3h-3A1.5 1.5 0 0 1 4 1.5ZM5.5 1a.5.5 0 0 0 0 1h3a.5.5 0 0 0 0-1h-3Z"/>
  <path id="fillcolor" d="M13.5 5.5h-5a1 1 0 0 0-1 1v8a1 1 0 0 0 1 1h5a1 1 0 0 0 1-1v-8a1 1 0 0 0-1-1Z"/>
  <path id="accentcolor" d="M7 6.5A1.5 1.5 0 0 1 8.5 5h5A1.5 1.5 0 0 1 15 6.5v8a1.5 1.5 0 0 1-1.5 1.5h-5A1.5 1.5 0 0 1 7 14.5v-8ZM8.5 6a.5.5 0 0 0-.5.5v8a.5.5 0 0 0 .5.5h5a.5.5 0 0 0 .5-.5v-8a.5.5 0 0 0-.5-.5h-5Z"/>
</svg>
