<svg xmlns="http://www.w3.org/2000/svg" fill="none" viewBox="0 0 16 16">
  <style>
        #basecolor {
          stroke: #555;
        }
        #fillcolor {
          fill: #FAFAFA;
        }
        #accentcolor {
          fill: #0078D4;
        }
        #accentcolor2 {
          stroke: #0078D4;
        }

        @media (prefers-color-scheme: dark) {
            #basecolor {
              stroke: #E0DFDF;
            }
            #fillcolor {
              fill: none;
            }
            #accentcolor {
              fill: #4CC2FF;
            }
            #accentcolor2 {
              stroke: #4CC2FF;
            }
        }
  </style>
  <path id="fillcolor" d="M3 2.5h6v11H3A2.5 2.5 0 0 1 .5 11V5A2.5 2.5 0 0 1 3 2.5Zm10 0h-1v11h1a2.5 2.5 0 0 0 2.5-2.5V5A2.5 2.5 0 0 0 13 2.5Z"/>
  <path id="basecolor" d="M9 2.5H3A2.5 2.5 0 0 0 .5 5v6A2.5 2.5 0 0 0 3 13.5h6m3-11h1A2.5 2.5 0 0 1 15.5 5v6a2.5 2.5 0 0 1-2.5 2.5h-1"/>
  <path id="accentcolor2" stroke-linecap="round" d="M8.5.5h2m2 0h-2m-2 15h2m2 0h-2m0-15v15"/>
  <path id="accentcolor" fill-rule="evenodd" d="M5.5 4a.5.5 0 0 1 .455.292l2.75 6a.5.5 0 1 1-.91.416L7.127 9.25H3.873l-.668 1.458a.5.5 0 1 1-.91-.416l2.75-6A.501.501 0 0 1 5.5 4Zm0 1.7L4.331 8.25H6.67L5.5 5.7Z"/>
</svg>
