<svg xmlns="http://www.w3.org/2000/svg" fill="none" viewBox="0 0 16 16">
  <style>
        #basecolor {
          fill: #555;
        }
        #fillcolor {
          fill: #FAFAFA;
        }
        #accentcolor {
          fill: #0078D4;
        }

        @media (prefers-color-scheme: dark) {
            #basecolor {
              fill: #E0DFDF;
            }
            #fillcolor {
              fill: none;
            }
            #accentcolor {
              fill: #4CC2FF;
            }
        }
  </style>
  <path id="fillcolor" d="M14.5 7.5a7 7 0 1 1-14 0 7 7 0 0 1 14 0Z"/>
  <path id="basecolor" d="M7.5 1a6.5 6.5 0 1 0 0 13 6.5 6.5 0 0 0 0-13ZM0 7.5a7.5 7.5 0 1 1 15 0 7.5 7.5 0 0 1-15 0Z"/>
  <path id="accentcolor" d="M7.5 4a.5.5 0 0 1 .5.5V7h2.5a.5.5 0 0 1 0 1H8v2.5a.5.5 0 0 1-1 0V8H4.5a.5.5 0 0 1 0-1H7V4.5a.5.5 0 0 1 .5-.5Z"/>
</svg>
